# xmcd
#
# Track frame offsets:
#	150
#	13170
#	31690
#	49063
#	67921
#	98595
#	111443
#	127152
#	142799
#	158256
#	171088
#	189024
#	203264
#	216825
#	234649
#	253905
#	273952
#	292999
#	307794
#
# Disc length: 4323 seconds
#
# Revision: 0
# Processed by: cddbd v1.5.1PL0 Copyright (c) Steve Scherf et al.
# Submitted via: audiograbber 1.83.01
#
DISCID=f410e113
DTITLE=Διάφοροι - θαλασσα 2005 (Non Stop Ελληνικες Επιτυχίες)
DYEAR=2005
DGENRE=Ελληνικά
TTITLE0=My numper one - Έλενα Παπαρίζου
TTITLE1=Call me - ’ννα Βίσση
TTITLE2=Σε πήρα σοβαρά - Σαρμπέλ
TTITLE3=’κουσε αγόρι μου - Καίτη Γαρμπή
TTITLE4=Maya maya - Χρήστος Δάντης
TTITLE5=O.k. - Έλενα Παπαρίζου
TTITLE6=Το ναρκωτικό μου - Καίτη Γαρμπή
TTITLE7=Ούτε στον εχθρό μου - Γιάννης Τάσσιος
TTITLE8=Σοκολάτα - Σαρμπέλ
TTITLE9=Μην πάς γυρεύοντας - Γιάννης Τάσσιος
TTITLE10=Φωτιά θαλασσί - Χρήστος Δάντης
TTITLE11=Χαμογέλασε - Αντώνης Ρέμος
TTITLE12=Καλοκαίρι στην καρδιά - C Real
TTITLE13=Έλα - Ειρήνη Μερκούρη
TTITLE14=Το Τζίνι - Χρήστος Πάζης
TTITLE15=Οι ’γγελοι - Αντώνης Ρέμος
TTITLE16=Παλίρροια - Ειρήνη Μερκούρη
TTITLE17=Σώμα με σώμα - Χρήστος Πάζης
TTITLE18=’σε με μόνο μου - Πάνος Καλλίδης
EXTD=
EXTT0=
EXTT1=
EXTT2=
EXTT3=
EXTT4=
EXTT5=
EXTT6=
EXTT7=
EXTT8=
EXTT9=
EXTT10=
EXTT11=
EXTT12=
EXTT13=
EXTT14=
EXTT15=
EXTT16=
EXTT17=
EXTT18=
PLAYORDER=
